<svg xmlns="http://www.w3.org/2000/svg" viewBox="0 0 355.32 124.84"><defs><style>.cls-1{fill:#8335fd;}</style></defs><g id="Capa_2" data-name="Capa 2"><g id="Capa_1-2" data-name="Capa 1"><path class="cls-1" d="M34.56,26.68V45.34H48.23V63.73H34.56V79.9c0,7.88,1.32,11.56,7.89,11.56a29.57,29.57,0,0,0,5.91-.52V109.6c-2.76,1.05-8.41,2-14.85,2-7.49,0-13.67-2.89-17.08-6.44-3.95-4.08-5.92-10.78-5.92-20.37v-21H2.37V45.34h8.14V32.06Z" transform="translate(-2.37 -14.32)"/><path class="cls-1" d="M85.42,27.33c0,6.31-4.74,11.44-12.88,11.44-7.89,0-12.62-5.13-12.62-11.44S64.65,15.9,72.67,15.9,85.28,20.89,85.42,27.33ZM60.18,110V45.34H85V110Z" transform="translate(-2.37 -14.32)"/><path class="cls-1" d="M96.19,96.19,113.67,77.4c4.6-4.86,7.62-7.75,12.48-12.35v-.27H98.42V45.34h59V59.53L141.26,77.14a179,179,0,0,1-13.14,13.14v.26h30.62V110H96.19Z" transform="translate(-2.37 -14.32)"/><path class="cls-1" d="M195.14,27.33c0,6.31-4.73,11.44-12.88,11.44-7.88,0-12.62-5.13-12.62-11.44s4.74-11.43,12.75-11.43S195,20.89,195.14,27.33ZM169.91,110V45.34h24.83V110Z" transform="translate(-2.37 -14.32)"/><path class="cls-1" d="M213.14,110V63.73H205V45.34h8.15V43.1c0-7.09,2.76-16.56,8.8-21.94s13.8-6.84,19.58-6.84a50.49,50.49,0,0,1,10.78,1.06V34.3a28.7,28.7,0,0,0-6.31-.66c-5.26,0-8.28,3.55-8.28,8.28v3.42H249.8V63.73H238V110Z" transform="translate(-2.37 -14.32)"/><path class="cls-1" d="M281.08,45.34l8.54,28c1.05,3.68,2.36,8.93,3.28,12.09h.53c.92-3.42,2-8.68,2.76-12.09l6.44-28H329.7L316,82.26c-12,32.72-19,42.05-26.15,47.83a40.73,40.73,0,0,1-23.26,9.07L262,118.4a31.14,31.14,0,0,0,8-1.84,21.71,21.71,0,0,0,8.41-5.78,5.1,5.1,0,0,0,1.31-3,8.64,8.64,0,0,0-1.05-3.82l-25.36-58.6Z" transform="translate(-2.37 -14.32)"/><path class="cls-1" d="M329.3,97.51c0-8.28,5.65-14.07,14.2-14.07s14.06,5.79,14.19,14.07S352,111.57,343.5,111.57,329.3,105.65,329.3,97.51Z" transform="translate(-2.37 -14.32)"/></g></g></svg>